<?xml version="1.0" encoding="UTF-8" standalone="no"?>
<!-- Created with Inkscape (http://www.inkscape.org/) -->
<svg id="svg3390" xmlns:rdf="http://www.w3.org/1999/02/22-rdf-syntax-ns#" xmlns="http://www.w3.org/2000/svg" version="1.1" xmlns:cc="http://creativecommons.org/ns#" xmlns:dc="http://purl.org/dc/elements/1.1/" viewBox="0 0 264 264">
 <metadata id="metadata3396">
  <rdf:RDF>
   <cc:Work rdf:about="">
    <dc:format>image/svg+xml</dc:format>
    <dc:type rdf:resource="http://purl.org/dc/dcmitype/StillImage"/>
    <dc:title/>
   </cc:Work>
  </rdf:RDF>
 </metadata>
 <g id="layer1">
  <path id="path3406" d="m37.343 201c-64.636-75.11-21.896-199.45 92.547-200.68 109.5-1.9185 166 117.79 98.07 200.36z" fill="#fa6d0e"/>
 </g>
 <g id="layer2">
  <path id="path3414" fill="#ffd600" d="m39.391 194.45c-5.232-6.2-9.522-12.72-13.649-20.73-6.979-13.55-11.103-27.74-12.599-43.34-0.60643-6.3238-0.44896-18.969 0.307-24.652 1.9531-14.684 5.7507-27.003 12.112-39.293 18.411-35.567 52.726-57.341 95.518-60.608 5.327-0.40672 17.081-0.40573 21.912 0.00186 26.228 2.2125 49.157 11.341 67.929 27.045 20.207 16.904 33.673 39.672 38.885 65.748 1.6378 8.1935 1.8934 11.156 1.8916 21.922-0.002 10.239-0.13698 12.089-1.4281 19.534-1.3592 7.838-3.1873 14.455-6.0824 22.015-1.9226 5.0206-5.4869 12.588-7.5942 16.124-0.76237 1.279-1.4706 2.5348-1.5739 2.7906-0.40166 0.99471-5.8217 8.831-8.4607 12.233l-2.7782 3.5809-73.628 0.008c-40.495 0.005-81.465 0.0864-91.042 0.18233l-17.414 0.1745-2.3083-2.7351z"/>
 </g>
 <g id="layer3" stroke="#000" fill-rule="evenodd" stroke-width="1px">
  <g>
   <path id="path3419" d="m60.733 41.274c-13.825 0.77302-13.491 15.928-7.5773 20.321 5.7404 4.7541 19.245 4.1115 18.714-10.677h-4.7071c0.81464 7.4274-6.1664 10.215-10.792 6.544-3.1787-2.4792-3.3966-10.664 4.4775-11.366z"/>
   <path id="path3463" d="m65.98 34.008 13.236-8.3473 1.9042 3.1531-9.4084 5.8018 2.8029 4.2282 8.8344-5.7404 1.8566 3.1392-8.6581 5.5386 2.6069 4.2479 9.2936-5.6452 1.8427 2.9629-13.094 7.9414z"/>
   <path id="path3487" d="m87.732 21.446 6.8212 20.517 5.2278-2.019-2.3576-6.936 2.411-0.80365 5.7125 5.6255 5.7485-1.9378-6.6391-6.0987c5.8115-6.7807-0.73197-16.414-12.805-10.333z"/>
   <path id="path3513" d="m110.12 14.044 0.73063 4.6679 6.1697-0.89299 1.9078 17.332 4.7085-0.64945-2.0295-17.048 6.3321-1.0554-0.4465-4.5055z"/>
   <path id="path3515" d="m136.55 12.177-1.1365 21.838 4.7897 0.32472 1.2177-21.919z"/>
   <path id="path3517" d="m152.46 14.288-5.2768 20.782 4.3026 1.1365 2.2731-8.3616 8.8487 2.5166 0.97417-3.8967-8.6864-2.5166 1.1365-4.5461 9.4982 2.5166 1.0554-4.3026z"/>
   <path id="path3519" d="m175.41 20.871-9.0758 19.895 4.3358 2.0608 9.1811-19.941z"/>
   <path id="path3521" d="m189.41 27.48 12.708 9.1323-2.2071 2.949-8.9107-6.5405-2.8659 4.1857 8.6381 6.0316-2.212 2.8997-8.3849-5.944-2.9577 4.0115 8.7225 6.4929-2.0539 2.8206-12.278-9.1525z"/>
   <path id="path3523" d="m209.61 42.295-15.749 14.45c2.101 4.1046 11.445 15.188 21.269 6.6568 7.7467-7.7002 0.46855-14.925-5.5203-21.107z"/>
  </g>
  <path id="path3597" d="m93.601 23.867 2.2731 5.845c2.2103-1.0484 7.5812-1.814 5.845-6.0886-1.7638-2.4625-4.5169-1.7258-8.1181 0.24354z" fill="#ffd600"/>
  <path id="path3600" d="m209.38 48.512-9.5145 8.7794c0.96874 2.2553 5.9216 8.786 12.12 3.0671 5.1113-5.0568 0.43115-8.5523-2.6052-11.847z" fill="#ffd600"/>
 </g>
 <g id="layer4">
  <path id="path3605" d="m52.811 196.72c-29.827-32.21-35.027-109.5 35.131-128.81l87.488-1.608c64.955 14.227 70.868 92.462 35.131 129.96z" fill="#fa3008"/>
 </g>
 <g id="layer5">
  <g fill="#fff">
   <path id="path3702" d="m44.545 110.85v41.675h11.251v-15.269h16.647v-9.6438h-16.647v-7.118h17.68v-9.6438z"/>
   <path id="path3704" d="m76.806 110.96v41.101h11.251v-12.399h3.7886l7.334 12.703h13.331l-8.6418-14.968c11.722-6.4577 8.299-26.954-8.0052-26.781 0 0-19.173 0.34442-19.058 0.34442z"/>
   <path id="path3706" d="m114.46 111.19v41.445h31.802v-10.218h-19.517v-6.4292h18.369v-9.6438h-18.369v-5.7404h19.632v-9.6438z"/>
   <path id="path3708" d="m174.28 125.31 7.0032-7.5773c-5.6401-9.8066-31.184-12.207-32.261 5.8552-0.0651 10.857 10.676 12.689 16.647 13.547 9.1514 1.1745 4.5108 5.4184 2.1813 5.97-4.1015 0.3558-9.5196-1.8055-12.858-6.3144l-7.118 7.3476c12.082 15.461 29.732 6.958 32.376 2.8702 9.8557-16.106-10.255-23.046-16.417-22.043-4.5744 0.5052-4.1267-6.0987 2.2962-4.5923 2.1102 0.54658 3.4808 0.3029 8.1513 4.9367z"/>
   <path id="path3710" d="m185.07 110.73v42.249h11.825v-16.417h12.055v16.303h11.94v-42.019h-12.055v15.499h-11.94v-15.499z"/>
  </g>
  <path id="path3712" d="m88.287 121.18v8.4957c5.4584-0.16649 10.747 0.86766 10.792-4.4775 0.05152-3.6316-3.2768-4.8952-10.792-4.0182z" fill="#fa3008"/>
 </g>
 <g id="layer6">
  <path id="path3895" d="m6.9717 230.41c6.2855-7.2889 16.555-13.98 31.498-19.97l24.841 36.694c-15.721 0.33212-26.526 9.2959-32.797 16.561-2.5232-9.7958-3.895-19.592-2.1107-29.387-10.522-4.6768-14.817-3.1271-21.432-3.8967z" fill="#04c754"/>
  <path id="path3961" d="m257.99 230.07c-6.2855-7.2889-16.555-13.98-31.498-19.97l-24.841 36.694c15.721 0.33212 26.526 9.2959 32.797 16.561 2.5232-9.7958 3.895-19.592 2.1107-29.387 10.522-4.6768 14.817-3.1271 21.432-3.8967z" fill="#04c754"/>
  <path id="path4029" d="m30.166 214.17c3.5218-1.832 4.8782-2.4512 8.4068-3.6212l9.2431 33.319z" fill="#00ac40"/>
  <path id="path4031" d="m234.73 213.72c-3.5218-1.832-4.8782-2.4512-8.4068-3.6212l-9.2431 33.319z" fill="#00ac40"/>
  <path id="path4033" fill="#009c34" d="m47.588 243.74 15.556 3.0424-0.68884-7.9791z"/>
  <path id="path4035" fill="#009c34" d="m202.92 240.06-1.2055 6.8884 15.958-3.0424z"/>
 </g>
 <g id="layer7" fill="#01912c">
  <path id="path4037" d="m30.686 197.59 16.786 46.372c57.615-9.8616 114.29-9.3656 170.17-0.1802l16.642-46.273c-71.73-11.24-135.24-12.64-203.59 0.08z"/>
  <path id="path4307" d="m95.793 191.42 2.1107-3.7343 7.5498-1.7048 7.631 5.0332z"/>
 </g>
 <g id="layer8">
  <g id="g4262" transform="matrix(.24170 0 0 .24170 49.363 178.57)" fill="#f9f517">
   <path id="path3554" d="m105.8 102.98-8.0172-0.10423v-50.619-50.619h24.186c26.088 0 28.291 0.12542 34.659 1.9732 10.334 2.9985 18.223 9.4964 22.57 18.591 2.1141 4.4222 2.9427 7.9588 3.1597 13.486 0.49026 12.49-4.8082 23.35-14.188 29.082-2.8096 1.7169-2.9403 1.8527-2.4829 2.5796 1.2343 1.9616 20.736 35.548 20.736 35.713 0 0.1025-7.4426 0.18636-16.539 0.18636h-16.539l-9.5998-16.167c-5.2799-8.8917-9.8029-16.445-10.051-16.784-0.33627-0.45988-1.1926-0.66814-3.3574-0.81651l-2.906-0.19918 0.1815 16.983 0.1815 16.983-6.9879-0.0828c-3.8433-0.0455-10.596-0.12973-15.005-0.18705zm35.703-56.479c6.7674-1.4238 10.228-4.6666 10.607-9.9384 0.26462-3.6861-0.61122-6.2013-2.9536-8.482-3.1044-3.0227-7.4377-4.0701-16.926-4.0912l-5.0084-0.0111 0.23412 3.2983c0.12877 1.814 0.23412 7.1086 0.23412 11.766v8.4675l5.6751-0.24535c3.1213-0.13495 6.7833-0.47851 8.1378-0.76348z"/>
   <path id="path3556" d="m218.68 104.68c-8.9254-1.007-16.797-4.9792-23.157-11.686-7.2226-7.6165-11.109-16.992-11.521-27.797-0.22097-5.7879 0.2163-9.6195 1.5977-14 5.206-16.508 19.973-26.343 40.714-27.116 3.5416-0.13202 6.6611-0.0434 8.8279 0.25076 17.801 2.4166 30.891 14.819 34.788 32.96 0.82406 3.8358 0.81686 12.628-0.0133 16.27-3.4361 15.073-14.036 25.493-29.983 29.475-6.315 1.5768-15.528 2.2888-21.255 1.6427h-0.00001zm9.7895-12.053c3.4979-1.0388 4.9377-2.9451 4.899-6.4866-0.013-1.1891-0.28397-2.8511-0.60221-3.6933-1.675-4.4332-1.6614-4.3761-1.2552-5.2676 0.21765-0.47768 0.78769-1.0471 1.2668-1.2654 1.1551-0.52631 1.8453-0.0729 3.4061 2.2376 2.2156 3.2798 6.2083 7.0112 8.7996 8.2239 2.0783 0.97253 2.6624 1.089 4.8436 0.96575 2.166-0.1224 2.733-0.31414 4.4738-1.5131 2.2856-1.5742 2.9015-2.8565 2.8796-5.996-0.0219-3.1463-1.6539-5.7434-4.8982-7.7954-1.9849-1.2554-6.2108-2.548-9.285-2.84-3.9203-0.37243-5.3039-1.0122-5.8047-2.6839-0.48683-1.6249 0.0253-2.9578 1.5779-4.1069 0.79157-0.58585 1.76-0.78306 4.6842-0.95387 2.3539-0.13749 4.0903-0.42912 4.8039-0.80682 5.1061-2.7026 5.4383-11.468 0.56294-14.856-1.364-0.9479-1.8674-1.0841-3.9636-1.0725-4.8275 0.0268-8.0918 3.1872-9.6325 9.3261-0.12439 0.49562-0.60784 1.313-1.0743 1.8163-0.9863 1.0642-2.8395 1.226-4.4579 0.38911-1.6309-0.84339-1.8399-2.6938-0.90178-7.9844 1.1672-6.5826 0.53375-9.3395-2.5629-11.154-1.9709-1.155-5.4749-1.5596-7.5568-0.87248-1.8355 0.60576-4.2268 3.0607-4.7778 4.905-1.1107 3.7172-0.22935 6.0738 3.8878 10.396 1.7296 1.8156 3.2504 3.6341 3.3796 4.0411 0.59081 1.8615-1.6535 3.9975-3.7227 3.543-1.1806-0.25929-2.3025-1.4025-4.1283-4.2067-2.9344-4.5068-7.0321-5.9454-11.069-3.8859-3.4732 1.7719-4.3725 5.7747-2.0664 9.1975 1.3375 1.9852 3.7393 3.3086 7.44 4.0994 5.3584 1.1451 6.8669 2.3079 5.4052 4.1662-0.75801 0.96366-0.83096 0.9792-3.3251 0.7083-3.7655-0.409-5.2238-0.25808-7.3156 0.75707-2.1787 1.0573-3.1289 2.2273-3.7222 4.5835-1.1898 4.725 2.1398 8.9112 7.0702 8.8892 2.5959-0.0116 4.5669-1.083 7.8614-4.2736 3.6397-3.525 4.2895-3.8967 5.4654-3.1262 1.2859 0.84253 1.4466 2.0917 0.56544 4.3943-2.0038 5.2363-0.15432 10.68 4.1498 12.214 1.8042 0.64317 2.5 0.6414 4.7-0.0119z"/>
   <path id="path3558" d="m310.73 103.24c-13.527-0.86538-20.855-4.6291-24.882-12.779-2.7931-5.6532-3.4544-10.408-3.7959-27.295l-0.23135-11.44h-1.89c-1.0395 0-2.6423-0.10312-3.5617-0.22914l-1.6717-0.22914v-12.382-12.382h3.7834 3.7834v-10.81-10.81h14.773 14.773v10.81 10.81h6.1255 6.1255v12.792 12.792h-6.1255-6.1255l0.001 11.44c0.001 10.711 0.0462 11.514 0.70471 12.594 1.2297 2.017 2.1917 2.2695 8.6444 2.2695h5.7831v12.611 12.611l-6.0354-0.0538c-3.3195-0.0296-7.9001-0.17311-10.179-0.31891z"/>
   <path id="path3560" d="m365.58 102.87c-15.629-1.5099-22.78-7.8138-25.148-22.169-0.41928-2.541-0.6553-7.1627-0.82014-16.06-0.12729-6.8705-0.36628-12.627-0.53108-12.791-0.1648-0.16485-1.8268-0.35591-3.6933-0.42459l-3.3937-0.12486v-12.577-12.577h4.0064 4.0064l-0.26587-10.81-0.26587-10.81h14.816 14.816v10.99 10.99h6.1255 6.1255v12.611 12.611h-6.144-6.144l0.10857 11.62c0.0984 10.534 0.16986 11.711 0.76417 12.586 1.4074 2.0734 2.088 2.2667 8.4426 2.3982l5.8553 0.12108v12.4 12.4l-7.837-0.0491c-4.3104-0.027-9.1809-0.17894-10.823-0.33763z"/>
   <path id="path3562" d="m425.4 87.386c-12.392-1.5612-23.904-7.7739-29.557-15.952-5.3449-7.7317-8.0642-16.437-8.0697-25.834-0.008-13.574 5.9092-24.516 17.388-32.154 7.1893-4.7836 12.745-6.3503 23.579-6.6497 5.523-0.1526 6.9942-0.0741 9.9106 0.52869 5.7317 1.1847 10.724 3.5398 14.889 7.0243 3.7102 3.1035 7.8573 9.2211 9.9488 14.676 2.507 6.5385 3.9263 17.032 3.034 22.43l-0.22334 1.3512h-26.076c-14.342 0-26.076 0.137-26.076 0.30446 0 0.16745 0.62239 1.2674 1.3831 2.4444 3.3244 5.1435 8.6222 7.7076 15.898 7.6943 5.4469-0.01 10.592-1.4423 14.27-3.973l1.4804-1.0186 8.2565 7.7551c4.5411 4.2653 8.475 7.9652 8.742 8.2221 0.75121 0.7224 0.0562 1.6522-3.1554 4.2219-4.9481 3.9589-11.022 6.685-18.337 8.23-4.0389 0.85301-13.138 1.2205-17.284 0.69813zm15.261-50.147c-0.59675-3.7319-2.7937-6.5239-6.4972-8.257-4.0532-1.8967-9.342-1.7323-13.564 0.42183-2.8638 1.461-5.5299 4.8747-6.2366 7.9854l-0.2218 0.97626 2.9759 0.12145c1.6367 0.0668 7.6583 0.15445 13.381 0.19478l10.405 0.0734-0.24243-1.5161z"/>
   <path id="path3564" d="m473.24 64.698v-38.915h14.593 14.593v5.4048c0 2.9727 0.12161 5.4037 0.27025 5.4023 0.14863-0.001 1.081-0.98805 2.0719-2.1925 3.3319-4.05 8.4992-7.6668 13.356-9.348 15.184-5.2565 31.395 6.568 33.649 24.545 0.23146 1.846 0.37789 12.826 0.37789 28.336v25.322h-14.773-14.773v-22.99-22.99l-0.9562-1.9188c-1.5738-3.1581-4.7154-4.9985-8.5924-5.0335-4.3579-0.0393-7.6091 2.6196-9.3056 7.6105-0.74626 2.1954-0.7727 2.9121-0.88464 23.973l-0.11539 21.71h-14.755-14.755v-38.915z"/>
   <path id="path3566" d="m483.72 195.49c-8.7879-1.2296-17.227-5.0751-22.84-10.407-6.9419-6.5948-11.058-16.86-11.058-27.579 0-11.183 5.0732-21.063 14.659-28.549 1.6668-1.3015 2.971-2.4258 2.8983-2.4985s-2.839 0.0526-6.1473 0.27845c-3.3084 0.22582-6.1097 0.31609-6.2252 0.20059-0.35527-0.35527 1.9224-3.3646 3.4808-4.5988 3.1887-2.5255 7.1982-3.4206 11.016-2.4593 2.8647 0.72134 2.7601 0.0117-0.52917-3.5913l-2.9368-3.2169 1.9486-1.6648c1.0718-0.91561 2.0264-1.6648 2.1214-1.6648s1.3454 1.8672 2.7786 4.1494 2.7377 4.2309 2.8989 4.3305c0.16121 0.0996 0.88234-0.70656 1.6025-1.7915 3.1041-4.6766 7.5048-6.7814 11.726-5.6087 2.8281 0.78567 2.8284 0.94893 0.009 4.474-1.4011 1.7514-2.5474 3.2129-2.5474 3.2477s2.8972-0.005 6.4382-0.0887c12.435-0.2935 20.725 1.6085 27.681 6.351 2.3823 1.6241 5.8912 5.1844 7.6504 7.7624 1.3597 1.9926 5.0735 9.6438 5.9418 12.241 1.8727 5.6021 2.1543 15.51 0.60611 21.323-1.0931 4.1048-3.901 9.5862-6.6754 13.032-6.2675 7.7832-16.447 13.536-27.95 15.794-3.5693 0.70076-13.148 1.0101-16.548 0.53438z"/>
   <path id="path3568" d="m578.46 196.55c-7.8346-0.99337-14.881-3.5706-21.428-7.837-7.4897-4.8811-13.128-13.98-15.556-25.105-0.78464-3.5949-1.0411-10.974-0.50816-14.619 1.8612-12.729 9.6305-22.96 22.28-29.339 2.3971-1.2089 4.4428-1.9037 7.7062-2.6174 4.0381-0.88306 5.1322-0.97166 12.01-0.97253 6.7615-0.00086 7.8928 0.087 10.63 0.82559 12.802 3.4549 21.615 13.546 24.914 28.527 0.6918 3.142 0.83442 4.8524 0.84128 10.089l0.008 6.3057-26.206 0.18017-26.206 0.18016 1.1028 1.9308c3.137 5.4924 8.7262 8.3384 16.375 8.3384 5.3866 0 11.187-1.6725 14.461-4.1698l1.1776-0.89824 8.8542 8.356 8.8542 8.356-1.3689 1.4106c-7.9413 8.1832-23.911 12.838-37.942 11.059zm15.344-49.787c-0.77215-4.8941-4.5797-8.3719-10.226-9.3401-7.3015-1.2521-14.551 3.0206-16.122 9.5022-0.23523 0.97036-0.23008 0.97313 2.0507 1.1016 1.2576 0.0709 7.2932 0.16007 13.413 0.19825l11.126 0.0694-0.24162-1.5314z"/>
   <path id="path3570" d="m649.62 196.93c-4.1463-0.4696-9.5241-1.6761-13.109-2.941-5.0223-1.7721-12.654-5.8658-12.654-6.7875 0-0.29887 10.534-18.822 11.044-19.42 0.0714-0.0836 2.3584 0.99211 5.0822 2.3905 7.4733 3.8368 10.895 4.8595 16.123 4.8192 4.2064-0.0324 6.9057-0.75215 8.1974-2.1858 1.8014-1.9995 0.97638-4.9047-1.6271-5.7293-0.64098-0.20303-3.6787-0.35471-6.7504-0.33708-3.9043 0.0224-6.3566-0.14086-8.1489-0.54259-10.216-2.2898-18.196-8.8832-21.451-17.724-0.64718-1.7576-0.7997-2.9616-0.82112-6.4824-0.0646-2.6728 0.7448-5.0553 1.5236-7.5661 3.0818-9.9354 13.202-16.079 23.78-18.263 2.9019-0.59914 4.4449-0.69408 9.0809-0.55874 6.0131 0.17555 9.6049 0.81959 15.149 2.7164 5.6992 1.9497 13.459 5.5992 13.421 6.312-0.009 0.16319-2.2624 4.0982-5.0083 8.7444-3.8334 6.4863-5.1196 8.3911-5.5397 8.2041-2.0201-0.89918-11.14-3.7997-13.519-4.2998-1.5854-0.33323-4.5108-0.62581-6.5009-0.65016-3.8407-0.047-4.94 0.31052-6.3727 2.0726-0.98054 1.206-0.83346 3.5197 0.29091 4.5764 0.89112 0.83748 1.1626 0.87763 6.5759 0.97257 13.405 0.2351 21.781 3.1407 27.711 9.6131 3.5386 3.8618 5.3831 8.2718 5.7427 13.731 0.51074 7.752-2.2504 14.495-8.2806 20.223-4.1377 3.9304-5.7939 4.9373-11.207 6.8132-5.8898 2.0411-15.988 3.0618-22.733 2.2979z"/>
   <path id="path3572" d="m427.56 194.43c-3.1147-0.14948-8.5034-0.88225-10.832-1.473-10.841-2.7501-16.058-8.9595-18.094-21.535-0.27815-1.718-0.47698-6.2005-0.68515-15.446l-0.29328-13.025-1.6724-0.15801c-0.91985-0.0869-2.561-0.15881-3.6471-0.15981l-1.9746-0.002v-12.612-12.612h3.9386 3.9386l-0.1221-9.1086c-0.0672-5.0098-0.17037-9.8826-0.22936-10.828l-0.10726-1.7198h14.89 14.89v10.956 10.956h6.1149 6.1149v12.739 12.739h-6.1149-6.1149l0.002 10.892c0.00076 6.8144 0.10147 11.252 0.26868 11.855 0.33257 1.1976 1.6225 2.6971 2.7115 3.1521 0.60913 0.25456 2.3193 0.34423 6.5646 0.34423h5.7409v12.612 12.612l-6.8156-0.0491c-3.7486-0.027-7.5608-0.0849-8.4717-0.12858z"/>
   <path id="path3574" d="m327.55 196.91c-6.0677-0.89879-12.181-4.2608-18.039-9.9194-3.6145-3.4921-5.6717-6.2542-7.7002-10.339-3.0306-6.1023-4.1772-10.835-4.3864-18.104-0.20071-6.9721 0.59366-12.343 2.7511-18.599 2.2335-6.4773 4.4455-10.213 8.3658-14.126 8.4647-8.4508 18.629-11.802 28.321-9.3368 5.607 1.426 10.185 4.0966 15.083 8.7982l2.2294 2.14v-4.7499-4.7499h13.886 13.886v38.473 38.473h-13.886-13.886v-4.841c0-2.6625-0.0749-4.841-0.16647-4.841-0.0916 0-1.2206 1.0606-2.5091 2.3568-7.0642 7.107-15.892 10.559-23.95 9.366zm17.685-28.317c5.7855-2.8454 9.0992-11.159 6.9944-17.547-1.1572-3.5124-4.2606-6.4205-8.2736-7.7526-3.876-1.2867-6.6105-1.145-10.106 0.52351-4.5126 2.154-7.1913 6.6024-7.1913 11.943 0 3.8881 1.2707 7.0034 3.9492 9.6819 4.0239 4.0239 10.164 5.3469 14.627 3.1517z"/>
   <path id="path3576" d="m260.84 189.73c-0.0924-2.9654-0.17862-11.364-0.1917-18.663-0.0131-7.2994-0.0995-15.45-0.19195-18.113-0.19113-5.5023-0.42525-6.3086-2.4118-8.3062-2.3224-2.3354-6.3268-3.1823-9.4598-2.0009-2.7463 1.0356-4.8368 3.8001-5.4692 7.2327-0.18747 1.0175-0.27855 8.5779-0.27855 23.122v21.61h-14.778c-8.1277 0-14.801-0.0287-14.829-0.0637-0.0281-0.035-0.1141-10.383-0.19109-22.995l-0.13998-22.931-0.86605-1.5971c-0.99669-1.838-2.2415-3.0544-4.1569-4.0618-1.1982-0.63025-1.6137-0.70842-3.7673-0.70889-2.0345-0.0005-2.5948 0.0925-3.5138 0.58259-2.416 1.2885-4.2402 4.0486-5.0865 7.6961-0.40668 1.7527-0.43572 3.667-0.35081 23.122l0.0926 21.211h-14.765-14.765l-0.16939-22.973c-0.0932-12.635-0.16939-30.12-0.16939-38.855v-15.882h14.643 14.643l0.0707 3.6275c0.0605 3.1064 0.13001 3.6389 0.48358 3.7068 0.24341 0.0467 1.3415-0.84094 2.6753-2.1625 2.7004-2.6758 5.0529-4.087 9.1256-5.4745 11.078-3.7741 22.042-1.1534 30.246 7.2298l2.2033 2.2515 0.69237-1.1814c3.2464-5.5396 12.361-9.5259 21.781-9.5259 7.8044 0 14.775 2.6568 19.708 7.5117 5.1179 5.0368 8.1838 12.777 8.6807 21.916 0.0762 1.4013 0.20438 13.239 0.28485 26.307l0.14632 23.759h-14.879-14.879l-0.16791-5.3916z"/>
   <path id="path3578" d="m107.78 196.02c-6.0926-0.99832-10.52-2.705-15.396-5.9351-11.61-7.6903-18.797-22.407-18.135-37.134 0.81092-18.046 12.392-31.634 30.62-35.927 7.9813-1.8796 17.076-2.1579 24.066-0.73652 12.231 2.4873 22.77 10.864 28.179 22.395 5.2662 11.228 5.4349 24.038 0.4578 34.76-5.5967 12.056-17.13 19.866-32.956 22.316-3.758 0.5817-13.917 0.73961-16.834 0.26167zm13.14-27.525c4.4484-0.93392 8.1199-3.6944 10.055-7.5597 1.0002-1.9983 1.0286-2.1268 1.0249-4.6373-0.004-3.0016-0.47007-5.2416-1.5427-7.4205-3.6817-7.4786-12.83-10.42-20.566-6.6116-3.7913 1.8662-7.0509 6.2224-7.7619 10.373-1.1202 6.5396 3.8078 14.306 10.256 16.163 1.4002 0.40328 5.9277 0.24039 8.5354-0.3071z"/>
   <path id="path3580" d="m28.559 158.18v-36.689h-13.376-13.376v-14.301-14.301l40.448 0.18815c22.246 0.10348 40.534 0.23971 40.639 0.30273 0.1051 0.063 0.19109 6.3565 0.19109 13.985v13.871h-12.994-12.994v36.817 36.817h-14.268-14.268v-36.689z"/>
   <path id="path4305" d="m705.5 109.07c-0.8084-0.0513-1.6332-0.0184-2.4531 0.0918-1.6393 0.22023-3.2608 0.74918-4.6836 1.582-1.7985 1.0528-3.6019 3.0024-4.5664 4.9102-2.1226 4.1983-1.8353 9.352 0.76758 13.117 1.7571 2.542 4.5826 4.305 7.9336 5.0293 1.743 0.37669 4.1785 0.36028 5.7168-0.13281 1.965-0.62998 3.6029-1.6767 5.1113-3.252 2.559-2.6723 3.9068-5.9718 3.9121-9.6094 0.005-3.253-1.1303-5.9181-3.459-8.1133-1.5822-1.4916-3.3513-2.4394-5.9258-3.2109-0.75281-0.22561-1.5451-0.36077-2.3535-0.41211zm-0.79492 3.9121c1.2826 0.00021 1.3825 0.009 2.248 0.27344 3.2525 0.99456 5.2285 2.8755 5.9492 5.4766 1.2382 4.4679-1.9019 9.9522-6.2051 10.967-1.9266 0.45434-5.0387-0.16285-6.8809-1.4258-2.9831-2.0454-4.2013-5.8638-2.9863-9.6445 0.72861-2.267 2.2294-3.9702 4.3262-4.9297 1.2837-0.58744 1.9196-0.71707 3.5488-0.71679z"/>
   <path id="path3584" d="m701.3 126.62-0.8542-0.0115v-5.3932-5.3933h2.577c2.7795 0 3.0143 0.0134 3.6928 0.21025 1.101 0.31948 1.9415 1.0118 2.4049 1.9808 0.22524 0.47117 0.31353 0.84798 0.33665 1.437 0.0521 1.3307-0.51231 2.4879-1.5117 3.0986-0.29937 0.18292-0.31328 0.19738-0.26455 0.27485 0.13151 0.20899 2.2093 3.7876 2.2093 3.8051 0 0.0107-0.79299 0.0199-1.7622 0.0199h-1.7622l-1.0228-1.7225c-0.56254-0.9474-1.0445-1.7521-1.0709-1.7883-0.0358-0.049-0.12706-0.0712-0.35773-0.087l-0.30963-0.0212 0.0193 1.8095 0.0193 1.8095-0.74454-0.009c-0.4095-0.005-1.1289-0.0138-1.5988-0.0199zm3.804-6.0177c0.72105-0.15169 1.0898-0.49721 1.1301-1.0589 0.0282-0.39275-0.0652-0.66074-0.3147-0.90375-0.33078-0.32205-0.79247-0.43365-1.8034-0.4359l-0.53364-0.001 0.0249 0.35143c0.0136 0.19328 0.0248 0.75742 0.0248 1.2536v0.90219l0.60466-0.0261c0.33258-0.0144 0.72275-0.0511 0.86707-0.0814z"/>
  </g>
 </g>
 <path id="path3607" d="m92.534 57.233c1.823-2.196 15.246-14.146 32.836-3.215l-6.8884-14.351 7.8069-0.80365 4.133 14.58c5.6938-6.7936 18.081-12.516 26.75-0.68884-7.1807 0.6116-8.6909 4.1794-9.1846 7.3476 21.349-2.099 27.616 3.9846 31.457 8.1513-12.791-3.6696-27.648 11.782-42.019 2.4109-2.2844 14.012-13.151 14.634-22.502 14.351 2.9228-4.5918 6.742-8.9147 3.7886-15.269-11.512 8.7305-20.641 5.0873-33.753-1.3777 1.6737-1.2709 18.946-7.0772 25.946-6.6588-6.6249-3.4685-13.423-4.1733-18.369-4.4775z" fill="#01912c"/>
</svg>
