<?xml version="1.0" encoding="UTF-8"?>
<svg id="IMDb_Square_Format_Gold_BKG_Black_Logo" xmlns="http://www.w3.org/2000/svg" version="1.1" viewBox="0 0 250 250">
  <!-- Generator: Adobe Illustrator 29.2.1, SVG Export Plug-In . SVG Version: 2.1.0 Build 116)  -->
  <defs>
    <style>
      .st0 {
        fill: #f5c518;
      }

      .st1 {
        fill: #161616;
        fill-rule: evenodd;
      }
    </style>
  </defs>
  <path id="BKG_F5c518" class="st0" d="M233.3.2H17C7.9.8.7,7.9.2,16.8v216.5c.6,9.1,7.4,16.1,16.2,16.9.2,0,.3,0,.5,0h216.6c.2,0,.3,0,.5,0,9.1-.8,16.2-8.6,16.2-17.8V18c0-9.3-7.2-17.1-16.5-17.8-.1,0-.3,0-.4,0h0Z"/>
  <path id="IMDb_Logo" class="st1" d="M48.5,85.8v77.4h-20v-77.4h20ZM91.1,85.8l-4.6,36.2-2.9-19.7c-.9-6.3-1.6-11.8-2.4-16.5h-25.9v77.4h17.5v-51.1c0,0,7.4,51.1,7.4,51.1h12.5l7-52.2v52.2h17.5v-77.4h-26.1ZM148.2,163.2c4.8,0,8.4-.3,10.8-.8,2.4-.5,4.4-1.4,6-2.8,1.6-1.3,2.8-3.1,3.4-5.5.6-2.4,1.1-7,1.1-13.9v-27.1c0-7.3-.3-12.3-.8-14.7-.4-2.5-1.5-4.8-3.3-6.8-1.8-2.1-4.4-3.5-7.8-4.4-3.3-.8-9-1.3-18.6-1.3h-15v77.4h24.2ZM144,99.1v50.8c2.8,0,4.6-.6,5.3-1.8.6-1.1,1-4.3,1-9.4v-30c0-3.5,0-5.8-.4-6.8-.2-1-.7-1.7-1.5-2.1-.8-.5-2.3-.7-4.4-.7ZM176.2,85.8v77.4h18l1.2-4.9c1.6,2,3.4,3.5,5.4,4.5,1.9.9,4.8,1.4,7.1,1.4s5.9-.8,8.2-2.5c2.3-1.6,3.8-3.6,4.4-5.9.6-2.3.9-5.7.9-10.3v-21.7c0-4.6-.1-7.7-.4-9.1-.2-1.4-.8-2.9-1.8-4.4-1.1-1.5-2.6-2.6-4.5-3.5-1.9-.8-4.2-1.2-6.9-1.2s-5.2.5-7.2,1.4c-1.9.9-3.7,2.3-5.3,4.2v-25.2h-19.2ZM202.2,124.6c0-3.2-.2-5.3-.6-6.3-.4-1.1-2.1-1.5-3.3-1.5s-1.9.4-2.3,1.3c-.4.9-.6,3.1-.6,6.6v20.5c0,3.4.2,5.6.6,6.6.4.9,1.2,1.4,2.3,1.4s2.9-.5,3.2-1.5c.4-1,.6-3.3.6-7v-19.9Z"/>
</svg>