<svg viewBox="0 0 386 314" fill="none" xmlns="http://www.w3.org/2000/svg">
<path d="M1.7002 237.611H15.5V0.941406H1.7002V237.611ZM30.2305 237.611H72.5596V0.941406H30.2305V237.611ZM86.3701 0.951416V237.611H128.7V0.951416H86.3701Z" fill="#990000"/>
<path d="M342.31 237.633H356.12V0.953125H342.31V237.633ZM370.84 0.953125V237.633H384.64V0.953125H370.84ZM142.96 237.633H156.76V0.953125H142.96V237.633ZM171.5 0.953125V237.623H185.31V0.953125H171.5Z" fill="#339966"/>
<path d="M199.56 237.633H241.9V0.953125H199.56V237.633ZM255.7 237.633H270.42V0.953125H255.7V237.633ZM284.23 0.953125V237.623H326.56V0.953125H284.23Z" fill="#006699"/>
<path d="M363.62 263.68L385.4 312.76H372.26L368.22 303.06H346.26L342.61 312.76H329.65L349.43 263.68H363.62ZM364.6 294.49L356.7 275.41L349.5 294.49H364.61M336.07 263.68V272.67H318.29V312.76H306.06V272.67H288.28V263.68H336.06M272.83 263.68L294.61 312.76H281.47L277.43 303.06H255.47L251.82 312.76H238.86L258.64 263.68H272.83ZM273.82 294.49L265.92 275.41L258.72 294.49H273.83M190.24 263.68H211.88C220.24 263.68 226.85 265.98 231.69 270.57C236.56 275.14 239 281.05 239 288.31C239 295.92 236.53 301.91 231.59 306.26C226.67 310.59 219.64 312.76 210.51 312.76H190.24V263.68ZM202.46 272.67V303.76H210.44C215.62 303.76 219.57 302.34 222.31 299.51C225.05 296.65 226.42 292.89 226.42 288.23C226.42 283.41 225.03 279.61 222.24 276.85C219.48 274.06 215.49 272.67 210.29 272.67H202.46ZM178.92 263.68V312.76H166.69V263.68H178.92ZM155.77 263.68L139.78 286.73L161.46 312.76H146.14L126.71 289.75V312.76H114.48V263.68H126.71V285.78L142.31 263.68H155.77ZM103.18 263.68V312.76H90.9502V263.68H103.18ZM42.96 281.39L27.7803 313.4H22.5098L0.94043 263.69H13.9004L25.46 290.81L38.0703 263.69H47.9102L60.5195 290.81L72.0098 263.69H84.9697L63.4697 313.4H58.2002L42.9502 281.39" fill="#484848"/>
</svg>
